<?xml version="1.0" encoding="iso-8859-1"?>
<!-- Uploaded to: SVG Repo, www.svgrepo.com, Generator: SVG Repo Mixer Tools -->
<svg height="800px" width="800px" version="1.1" id="Layer_1" xmlns="http://www.w3.org/2000/svg" xmlns:xlink="http://www.w3.org/1999/xlink" 
	 viewBox="0 0 512 512" xml:space="preserve">
<path style="fill:#F78C20;" d="M78.333,355.334C35.14,355.334,0,390.474,0,433.667S35.14,512,78.333,512s78.333-35.14,78.333-78.333
	S121.526,355.334,78.333,355.334z"/>
<g>
	<path style="fill:#FFA929;" d="M78.333,381.445c-28.795,0-52.222,23.427-52.222,52.222s23.427,52.222,52.222,52.222
		s52.222-23.427,52.222-52.222S107.128,381.445,78.333,381.445z"/>
	<path style="fill:#FFA929;" d="M477.918,264.861c-21.843-51.641-53.111-98.019-92.936-137.842
		c-39.824-39.824-86.201-71.093-137.843-92.935C193.669,11.468,136.874,0,78.333,0c-4.807,0-8.704,3.897-8.704,8.704v85.519
		c0,4.807,3.897,8.704,8.704,8.704c182.37,0,330.74,148.369,330.74,330.74c0,4.807,3.897,8.704,8.704,8.704h85.52
		c4.807,0,8.704-3.897,8.704-8.704C512,375.126,500.533,318.331,477.918,264.861z"/>
	<path style="fill:#FFA929;" d="M78.333,163.853c-4.807,0-8.704,3.897-8.704,8.704v95.74c0,4.807,3.897,8.704,8.704,8.704
		c86.386,0,156.666,70.281,156.666,156.666c0,4.807,3.897,8.704,8.704,8.704h95.74c4.807,0,8.704-3.897,8.704-8.704
		c0-72.07-28.065-139.826-79.027-190.787C218.159,191.919,150.403,163.853,78.333,163.853z"/>
</g>
<g>
	<path style="fill:#F78C20;" d="M78.333,242.186c-2.918,0-5.817,0.076-8.704,0.206v25.905c0,4.807,3.897,8.704,8.704,8.704
		c86.386,0,156.666,70.281,156.666,156.666c0,4.807,3.897,8.704,8.704,8.704h25.905c0.129-2.886,0.206-5.786,0.206-8.704
		C269.814,327.915,184.085,242.186,78.333,242.186z"/>
	<path style="fill:#F78C20;" d="M78.333,68.113c-2.91,0-5.81,0.042-8.704,0.11v26.001c0,4.807,3.897,8.704,8.704,8.704
		c182.37,0,330.74,148.369,330.74,330.74c0,4.807,3.897,8.704,8.704,8.704h26.001c0.067-2.894,0.11-5.793,0.11-8.704
		C443.887,231.777,280.223,68.113,78.333,68.113z"/>
</g>
</svg>