<svg width="80" height="110" viewBox="0 0 80 110" fill="none" xmlns="http://www.w3.org/2000/svg">
<path d="M19.7827 41.3042C18.7026 41.3042 17.8262 40.4284 17.8262 39.3476V35.4346C17.8262 34.3538 18.7026 33.478 19.7827 33.478C20.8629 33.478 21.7393 34.3538 21.7393 35.4346V39.3476C21.7393 40.4284 20.8629 41.3042 19.7827 41.3042Z" fill="#8C7468"/>
<path d="M60.2173 41.3042C59.1372 41.3042 58.2607 40.4284 58.2607 39.3476V35.4346C58.2607 34.3538 59.1372 33.478 60.2173 33.478C61.2974 33.478 62.1739 34.3538 62.1739 35.4346V39.3476C62.1737 40.4284 61.2974 41.3042 60.2173 41.3042Z" fill="#806A5F"/>
<path d="M51.739 41.3041H28.2608C27.5832 41.3041 26.9526 40.9532 26.5959 40.3762C26.2404 39.7992 26.2073 39.0789 26.5106 38.4725L30.4236 30.6463C30.7547 29.9833 31.4323 29.5649 32.1738 29.5649H47.8259C48.5674 29.5649 49.2449 29.9834 49.5761 30.6463L53.4891 38.4725C53.7923 39.0787 53.7591 39.7992 53.4038 40.3762C53.0472 40.9532 52.4166 41.3041 51.739 41.3041Z" fill="#C9D2D9"/>
<path d="M49.5762 30.6468C49.245 29.9838 48.5675 29.5654 47.826 29.5654H40V41.3045H51.7391C52.4167 41.3045 53.0473 40.9536 53.404 40.3766C53.7595 39.7995 53.7926 39.0793 53.4893 38.4729L49.5762 30.6468Z" fill="#B7C4CC"/>
<path d="M64.1304 37.3911H15.8696C12.633 37.3911 10 40.0241 10 43.2607V49.1303H70V43.2607C70 40.0241 67.367 37.3911 64.1304 37.3911Z" fill="#EDF0F2"/>
<path d="M64.1304 37.3911H40V49.1303H70V43.2607C70 40.0241 67.367 37.3911 64.1304 37.3911Z" fill="#DAE1E6"/>
<path d="M10 68.6958V74.5654C10 77.802 12.633 80.4349 15.8696 80.4349H64.1304C67.367 80.4349 70 77.802 70 74.5654V68.6958H10Z" fill="#EDF0F2"/>
<path d="M40 80.4348H64.1304C67.367 80.4348 70 77.8019 70 74.5653V68.6958H40V80.4348Z" fill="#DAE1E6"/>
<path d="M70 45.2173H10V72.6086H70V45.2173Z" fill="#FFC033"/>
<path d="M70 45.2173H40V72.6086H70V45.2173Z" fill="#F9A926"/>
<path d="M39.9999 72.6087C32.4478 72.6087 26.3042 66.4647 26.3042 58.913C26.3042 51.3613 32.4476 45.2173 39.9999 45.2173C47.5522 45.2173 53.6956 51.3613 53.6956 58.913C53.6956 66.4647 47.5521 72.6087 39.9999 72.6087Z" fill="#736056"/>
<path d="M53.6957 58.913C53.6957 51.3613 47.5523 45.2173 40 45.2173V72.6086C47.5521 72.6087 53.6957 66.4647 53.6957 58.913Z" fill="#665247"/>
<path d="M39.9999 49.1304C34.6055 49.1304 30.2173 53.5186 30.2173 58.9129C30.2173 64.3073 34.6055 68.6956 39.9999 68.6956C45.3942 68.6956 49.7824 64.3074 49.7824 58.9131C49.7824 53.5187 45.3942 49.1304 39.9999 49.1304Z" fill="#FFE0B2"/>
<path d="M49.7826 58.9129C49.7826 53.5186 45.3944 49.1304 40 49.1304V68.6956C45.3944 68.6956 49.7826 64.3073 49.7826 58.9129Z" fill="#FDCD99"/>
<path d="M39.9999 64.7826C36.7633 64.7826 34.1304 62.1496 34.1304 58.913C34.1304 55.6764 36.7633 53.0435 39.9999 53.0435C43.2365 53.0435 45.8695 55.6764 45.8695 58.913C45.8695 62.1496 43.2365 64.7826 39.9999 64.7826Z" fill="#736056"/>
<path d="M45.8696 58.913C45.8696 55.6764 43.2366 53.0435 40 53.0435V64.7826C43.2366 64.7826 45.8696 62.1496 45.8696 58.913Z" fill="#665247"/>
<path d="M40 56.9565C38.9212 56.9565 38.0435 57.8343 38.0435 58.9131C38.0435 59.9919 38.9212 60.8697 40 60.8697C41.0788 60.8697 41.9566 59.9919 41.9566 58.9131C41.9566 57.8342 41.0788 56.9565 40 56.9565Z" fill="#61DAF2"/>
<path d="M41.9566 58.9131C41.9566 57.8343 41.0788 56.9565 40 56.9565V60.8695C41.0788 60.8697 41.9566 59.9919 41.9566 58.9131Z" fill="#45C7E6"/>
<path d="M60.2173 64.7826C59.1372 64.7826 58.2607 63.9069 58.2607 62.826V55C58.2607 53.9192 59.1372 53.0435 60.2173 53.0435C61.2974 53.0435 62.1739 53.9192 62.1739 55V62.8262C62.1737 63.9069 61.2974 64.7826 60.2173 64.7826Z" fill="#99522E"/>
<path d="M19.7827 64.7826C18.7026 64.7826 17.8262 63.9069 17.8262 62.826V55C17.8262 53.9192 18.7026 53.0435 19.7827 53.0435C20.8629 53.0435 21.7393 53.9192 21.7393 55V62.8262C21.7393 63.9069 20.8629 64.7826 19.7827 64.7826Z" fill="#A6673A"/>
</svg>
